<?xml version="1.0" encoding="utf-8"?>
<!-- Generator: Adobe Illustrator 16.0.4, SVG Export Plug-In . SVG Version: 6.00 Build 0)  -->
<!DOCTYPE svg PUBLIC "-//W3C//DTD SVG 1.1//EN" "http://www.w3.org/Graphics/SVG/1.1/DTD/svg11.dtd">
<svg version="1.1" id="Layer_2" xmlns="http://www.w3.org/2000/svg" xmlns:xlink="http://www.w3.org/1999/xlink" x="0px" y="0px"
	 width="577px" height="304.773px" viewBox="0 0 577 304.773" enable-background="new 0 0 577 304.773" xml:space="preserve">
<g>
	<polygon fill="#FFFFFF" stroke="#000000" stroke-linejoin="round" stroke-miterlimit="10" points="181.473,17.446 188.762,0.921 
		243.619,0.968 250.341,17.446 	"/>
	<polygon fill="#FFFFFF" stroke="#000000" stroke-linejoin="round" stroke-miterlimit="10" points="250.341,17.446 268.743,19.249 
		285.487,72.159 271.622,82.942 	"/>
</g>
<g>
	<polygon fill="#FFFFFF" stroke="#000000" stroke-linejoin="round" stroke-miterlimit="10" points="48.763,82.943 35.298,70.906 
		52.295,18.747 70.043,17.445 	"/>
	<polygon fill="#FFFFFF" stroke="#000000" stroke-linejoin="round" stroke-miterlimit="10" points="70.043,17.445 77.444,0.5 
		132.939,0.927 138.909,17.445 	"/>
</g>
<g>
	<polygon fill="#FFFFFF" stroke="#000000" stroke-linejoin="round" stroke-miterlimit="10" points="70.044,229.398 54.435,238.483 
		10.083,206.198 14.329,188.917 	"/>
	<polygon fill="#FFFFFF" stroke="#000000" stroke-linejoin="round" stroke-miterlimit="10" points="14.329,188.917 0.5,176.642 
		18.055,123.995 35.61,123.421 	"/>
</g>
<g>
	<polygon fill="#FFFFFF" stroke="#000000" stroke-linejoin="round" stroke-miterlimit="10" points="215.906,254.416 
		219.722,272.069 175.313,304.274 160.189,294.895 	"/>
	<polygon fill="#FFFFFF" stroke="#000000" stroke-linejoin="round" stroke-miterlimit="10" points="160.189,294.895 
		144.242,304.254 99.597,271.29 104.477,254.417 	"/>
</g>
<polygon fill="#FFFFFF" stroke="#000000" stroke-linejoin="round" stroke-miterlimit="10" points="92.148,239.481 101.177,210.657 
	124.706,193.035 104.476,254.414 "/>
<polygon fill="#FFFFFF" stroke="#000000" stroke-linejoin="round" stroke-miterlimit="10" points="232.329,236.509 207.705,219.014 
	198.216,191.19 250.339,229.398 "/>
<polygon fill="#FFFFFF" stroke="#000000" stroke-linejoin="round" stroke-miterlimit="10" points="272.817,102.269 248.57,120.282 
	219.179,120.708 271.622,82.942 "/>
<polygon fill="#FFFFFF" stroke="#000000" stroke-linejoin="round" stroke-miterlimit="10" points="157.66,22.279 167.298,50.906 
	158.622,78.992 138.91,17.444 "/>
<polygon fill="#FFFFFF" stroke="#000000" stroke-linejoin="round" stroke-miterlimit="10" points="46,107.082 76.204,106.761 
	100.235,123.692 35.609,123.42 "/>
<polygon fill="#FFFFFF" stroke="#000000" stroke-linejoin="round" stroke-miterlimit="10" points="498.678,72.859 489.651,101.683 
	466.122,119.306 486.352,57.926 "/>
<polygon fill="#FFFFFF" stroke="#000000" stroke-linejoin="round" stroke-miterlimit="10" points="358.498,75.833 383.122,93.327 
	392.609,121.15 340.486,82.943 "/>
<polygon fill="#FFFFFF" stroke="#000000" stroke-linejoin="round" stroke-miterlimit="10" points="318.009,210.071 342.256,192.059 
	371.648,191.632 319.205,229.4 "/>
<polygon fill="#FFFFFF" stroke="#000000" stroke-linejoin="round" stroke-miterlimit="10" points="433.166,290.062 423.528,261.436 
	432.206,233.35 451.918,294.897 "/>
<polygon fill="#FFFFFF" stroke="#000000" stroke-linejoin="round" stroke-miterlimit="10" points="544.826,205.258 514.622,205.58 
	490.593,188.649 555.219,188.92 "/>
<g>
	<polygon fill="#FFFFFF" stroke="#000000" stroke-linejoin="round" stroke-miterlimit="10" points="306.055,188.919 
		310.027,206.978 264.879,239.252 250.341,229.398 	"/>
</g>
<polygon fill="#FFFFFF" stroke="#000000" stroke-linejoin="round" stroke-miterlimit="10" points="125.758,188.918 104.477,123.422 
	160.191,82.942 215.906,123.422 194.625,188.918 "/>
<polygon fill="#FFFFFF" stroke="#000000" stroke-linejoin="round" stroke-miterlimit="10" points="194.625,188.918 215.906,254.416 
	160.191,294.894 104.477,254.416 125.758,188.918 "/>
<polygon fill="#FFFFFF" stroke="#000000" stroke-linejoin="round" stroke-miterlimit="10" points="215.906,123.422 284.773,123.422 
	306.055,188.919 250.34,229.4 194.626,188.919 "/>
<polygon fill="#FFFFFF" stroke="#000000" stroke-linejoin="round" stroke-miterlimit="10" points="160.191,82.942 181.473,17.446 
	250.341,17.446 271.622,82.942 215.908,123.421 "/>
<polygon fill="#FFFFFF" stroke="#000000" stroke-linejoin="round" stroke-miterlimit="10" points="104.477,123.422 48.763,82.943 
	70.043,17.445 138.911,17.445 160.192,82.94 "/>
<polygon fill="#FFFFFF" stroke="#000000" stroke-linejoin="round" stroke-miterlimit="10" points="125.758,188.918 70.044,229.398 
	14.328,188.917 35.61,123.421 104.475,123.421 "/>
<polygon fill="#FFFFFF" stroke="#000000" stroke-linejoin="round" stroke-miterlimit="10" points="465.07,123.423 486.352,188.919 
	430.637,229.4 374.921,188.919 396.202,123.423 "/>
<polygon fill="#FFFFFF" stroke="#000000" stroke-linejoin="round" stroke-miterlimit="10" points="396.202,123.423 374.921,57.926 
	430.637,17.448 486.352,57.926 465.07,123.423 "/>
<polygon fill="#FFFFFF" stroke="#000000" stroke-linejoin="round" stroke-miterlimit="10" points="374.921,188.919 306.055,188.919 
	284.773,123.422 340.486,82.943 396.201,123.422 "/>
<polygon fill="#FFFFFF" stroke="#000000" stroke-linejoin="round" stroke-miterlimit="10" points="430.637,229.4 409.355,294.895 
	340.486,294.895 319.205,229.4 374.919,188.92 "/>
<polygon fill="#FFFFFF" stroke="#000000" stroke-linejoin="round" stroke-miterlimit="10" points="486.352,188.919 542.064,229.4 
	520.783,294.897 451.918,294.897 430.637,229.402 "/>
<polygon fill="#FFFFFF" stroke="#000000" stroke-linejoin="round" stroke-miterlimit="10" points="465.07,123.423 520.782,82.944 
	576.5,123.425 555.219,188.92 486.354,188.92 "/>
</svg>
