<?xml version="1.0" standalone="no"?>
<!DOCTYPE svg PUBLIC "-//W3C//DTD SVG 20010904//EN"
 "http://www.w3.org/TR/2001/REC-SVG-20010904/DTD/svg10.dtd">
<svg version="1.0" xmlns="http://www.w3.org/2000/svg"
 width="296.000000pt" height="283.000000pt" viewBox="0 0 296.000000 283.000000"
 preserveAspectRatio="xMidYMid meet">
<metadata>
Created by potrace 1.10, written by Peter Selinger 2001-2011
</metadata>
<g transform="translate(0.000000,283.000000) scale(0.100000,-0.100000)"
fill="#000000" stroke="none">
<path d="M1400 2814 c-14 -7 -32 -14 -41 -14 -9 0 -45 -8 -80 -19 -35 -10
-111 -30 -169 -45 -58 -15 -129 -34 -159 -43 -29 -8 -103 -27 -165 -43 -204
-51 -224 -59 -254 -96 -28 -35 -35 -51 -150 -329 -39 -93 -84 -201 -101 -238
-77 -170 -123 -301 -131 -370 -12 -108 -29 -269 -40 -392 -5 -60 -15 -158 -21
-217 l-12 -107 28 -38 c16 -21 59 -72 95 -113 72 -82 125 -143 395 -453 186
-214 215 -238 285 -235 42 1 133 -9 175 -20 22 -6 83 -14 135 -18 52 -3 111
-8 130 -11 83 -11 284 -14 304 -5 12 6 53 17 91 26 39 9 131 32 205 51 74 20
167 45 205 55 39 10 104 27 145 38 41 11 102 28 135 36 33 9 71 24 85 34 25
18 61 82 98 177 11 28 40 97 65 155 60 143 116 276 137 330 10 25 36 88 59
140 35 82 42 111 51 215 6 66 20 208 31 315 11 107 22 232 25 277 l5 83 -59
67 c-194 219 -494 563 -533 611 -100 124 -107 129 -184 137 -39 3 -97 12 -130
20 -33 8 -100 16 -150 19 -121 8 -168 14 -200 26 -40 15 -275 11 -305 -6z
m230 -25 c41 -5 152 -18 245 -29 94 -11 204 -24 245 -30 41 -5 85 -9 97 -10
14 0 43 -25 83 -72 34 -40 79 -91 99 -114 20 -22 59 -66 86 -99 28 -32 61 -70
75 -85 14 -15 48 -53 75 -85 62 -73 118 -138 125 -145 3 -3 30 -34 60 -69 30
-36 68 -79 83 -95 26 -28 28 -36 23 -86 -2 -30 -14 -149 -25 -265 -11 -115
-26 -264 -32 -330 -6 -66 -17 -133 -24 -150 -8 -16 -28 -64 -45 -105 -17 -41
-38 -89 -46 -107 -8 -17 -14 -34 -14 -38 0 -4 -6 -21 -14 -38 -8 -18 -29 -66
-46 -107 -17 -41 -38 -88 -45 -105 -7 -16 -25 -59 -40 -95 -14 -36 -33 -79
-41 -97 -8 -17 -14 -34 -14 -38 0 -19 -46 -102 -64 -115 -11 -8 -41 -20 -66
-27 -155 -41 -203 -54 -270 -72 -41 -10 -129 -33 -195 -51 -183 -48 -346 -91
-382 -100 -18 -4 -65 -4 -105 2 -81 10 -336 40 -527 62 l-124 14 -46 50 c-25
28 -75 85 -111 128 -36 42 -76 88 -90 103 -14 15 -47 53 -75 86 -27 32 -57 66
-65 75 -8 8 -40 45 -70 80 -67 79 -110 128 -130 149 -8 9 -36 41 -61 71 l-47
55 8 80 c5 44 18 177 29 295 34 355 40 399 61 445 11 24 20 47 20 50 0 4 6 21
14 38 8 18 29 66 46 107 30 70 43 101 84 192 9 20 16 40 16 45 1 4 9 26 20 48
11 22 19 44 20 48 0 5 11 32 23 60 13 29 32 72 43 97 10 25 30 68 44 95 28 55
14 48 195 95 39 10 106 28 150 40 44 11 114 29 155 40 41 11 111 29 155 40 44
12 114 31 155 41 41 11 89 24 105 29 41 11 86 11 175 -1z"/>
<path d="M1498 2784 c-3 -2 -76 -22 -164 -45 -260 -67 -295 -76 -374 -97 -41
-11 -145 -38 -230 -60 -132 -34 -157 -43 -167 -63 -11 -21 -24 -49 -78 -174
-7 -16 -25 -59 -40 -95 -14 -36 -33 -79 -41 -97 -8 -17 -14 -34 -14 -38 0 -3
-9 -27 -21 -53 -12 -26 -27 -60 -34 -77 -11 -25 -88 -209 -120 -290 -13 -32
-15 -53 -64 -590 l-19 -200 23 -30 c13 -16 34 -42 47 -56 50 -56 139 -158 213
-244 70 -81 145 -167 200 -229 11 -13 43 -49 70 -81 28 -32 66 -76 86 -98 l36
-40 38 23 c21 13 33 26 27 28 -7 2 -24 -6 -38 -17 l-26 -21 -30 38 c-16 20
-34 42 -41 47 -7 6 -46 50 -87 99 -41 50 -84 99 -95 111 -11 11 -42 47 -70 80
-27 32 -57 66 -65 75 -8 8 -40 45 -70 80 -55 65 -83 96 -159 180 -45 50 -46
56 -31 200 23 211 53 529 54 567 1 38 3 42 21 37 11 -4 25 -10 30 -14 6 -4 28
-13 50 -20 22 -7 54 -18 70 -25 17 -8 64 -28 105 -45 80 -34 108 -46 182 -79
26 -12 50 -21 53 -21 3 0 25 -9 48 -19 24 -11 55 -23 70 -26 15 -4 30 -11 33
-16 7 -12 34 -12 34 0 0 5 -12 12 -27 16 -16 3 -41 13 -58 20 -16 8 -59 26
-95 40 -36 15 -78 33 -95 40 -26 12 -94 40 -210 89 -16 7 -69 28 -116 47 l-86
33 29 71 c16 38 36 84 44 102 8 17 14 34 14 38 0 3 9 27 21 53 12 26 27 61 34
77 8 17 37 86 65 155 28 69 55 134 60 145 5 11 23 54 40 95 47 112 50 118 79
123 14 3 62 15 106 27 44 12 112 29 150 40 39 10 142 37 230 60 88 23 187 49
220 57 33 8 79 21 103 29 60 20 81 18 91 -8 8 -21 33 -101 93 -298 11 -36 23
-72 27 -80 4 -8 14 -40 21 -70 7 -30 16 -59 20 -65 4 -5 15 -40 24 -77 10 -38
22 -68 27 -68 12 0 11 14 -5 57 -14 39 -43 128 -91 288 -15 50 -43 137 -61
195 -18 58 -36 118 -40 133 -6 26 -5 28 12 18 11 -5 62 -15 114 -20 154 -16
439 -50 518 -61 62 -8 77 -14 95 -37 12 -15 40 -48 62 -74 22 -25 63 -71 90
-103 28 -32 61 -70 75 -85 14 -15 48 -54 75 -86 28 -32 57 -66 65 -75 8 -9 40
-45 70 -81 30 -35 57 -66 60 -69 3 -3 35 -39 72 -81 l67 -76 -34 -39 c-19 -21
-35 -42 -35 -46 0 -18 17 -4 48 38 38 51 39 47 -40 135 -31 35 -66 75 -78 89
-12 14 -45 52 -73 84 -29 33 -70 81 -92 106 -93 107 -141 163 -165 189 -14 15
-47 54 -75 86 -27 32 -66 76 -86 98 l-36 40 -169 19 c-436 48 -520 58 -541 62
-11 2 -23 3 -25 0z"/>
<path d="M1395 2722 c-49 -13 -123 -33 -162 -43 -40 -10 -106 -28 -145 -38
-40 -10 -145 -38 -233 -61 -88 -23 -179 -47 -202 -53 l-42 -10 16 -31 c9 -17
19 -33 23 -36 4 -3 24 -30 43 -62 35 -54 38 -56 74 -52 37 4 224 20 626 53
115 9 197 20 197 26 -1 16 -30 118 -40 140 -5 11 -14 40 -20 65 -10 42 -14 55
-36 105 -9 20 -9 20 -99 -3z m95 -85 c6 -23 20 -69 31 -101 29 -89 28 -92 -38
-103 -32 -6 -100 -11 -152 -12 -52 -1 -126 -8 -165 -16 -39 -7 -84 -14 -101
-13 -16 0 -96 -3 -177 -7 l-146 -7 -36 53 c-20 29 -32 57 -28 61 4 4 86 28
182 52 96 25 211 55 255 66 381 102 356 101 375 27z"/>
<path d="M1543 2739 c3 -8 13 -39 22 -69 9 -30 19 -62 24 -70 4 -8 14 -40 21
-70 7 -30 19 -69 26 -85 12 -31 13 -31 72 -25 58 5 72 12 174 82 15 10 29 18
31 18 3 0 82 47 210 126 l47 29 -107 12 c-255 28 -460 52 -492 59 -27 6 -33 4
-28 -7z m207 -54 c60 -5 115 -12 243 -31 26 -4 47 -10 47 -13 0 -4 -42 -31
-92 -61 -51 -30 -115 -70 -142 -88 -41 -27 -57 -32 -95 -30 -51 3 -45 -6 -90
143 -29 96 -29 97 22 91 23 -3 71 -8 107 -11z"/>
<path d="M2140 2640 c-58 -37 -79 -50 -126 -78 -22 -12 -57 -34 -79 -47 -22
-14 -68 -41 -102 -61 -35 -19 -65 -40 -69 -45 -3 -5 -27 -9 -54 -9 -27 0 -52
-5 -56 -12 -5 -8 8 -9 48 -5 42 5 76 19 144 61 49 30 151 91 227 137 75 45
137 84 137 86 0 10 -30 -2 -70 -27z"/>
<path d="M2158 2617 c-140 -87 -242 -147 -250 -147 -4 0 -8 -4 -8 -8 0 -5 -12
-14 -27 -21 -16 -7 -42 -22 -59 -33 l-31 -21 19 -51 c10 -28 26 -65 33 -83 8
-17 15 -37 15 -45 1 -7 9 -31 20 -53 11 -22 19 -44 20 -48 0 -4 9 -27 19 -50
11 -24 23 -55 26 -70 4 -16 19 -36 34 -45 14 -9 28 -19 31 -22 10 -11 112 -70
120 -70 5 0 10 -3 12 -7 3 -8 61 -45 156 -102 24 -14 56 -34 70 -43 15 -10 43
-27 62 -38 19 -11 64 -39 100 -60 l65 -40 36 40 c20 22 47 55 60 72 78 102
143 184 154 193 6 6 19 21 28 35 16 25 15 27 -16 61 -18 19 -57 64 -87 99 -30
35 -62 71 -70 80 -8 9 -49 56 -90 105 -41 49 -84 98 -95 110 -11 11 -42 47
-70 79 -27 33 -61 71 -75 86 -14 15 -47 52 -74 83 -27 32 -51 57 -55 56 -3 0
-36 -19 -73 -42z m142 -79 c36 -40 76 -86 90 -104 14 -17 53 -62 87 -100 66
-74 319 -368 342 -396 11 -15 10 -21 -5 -42 -118 -154 -218 -275 -231 -280 -9
-4 -106 49 -262 145 -314 193 -338 209 -349 234 -5 11 -20 45 -32 75 -12 30
-31 73 -41 96 -11 23 -19 47 -19 54 0 8 -11 42 -25 76 -22 56 -25 94 -6 94 3
0 87 50 186 110 99 61 184 110 190 110 6 0 40 -32 75 -72z"/>
<path d="M590 2502 c0 -13 45 -87 67 -110 7 -7 13 -17 13 -21 0 -4 9 -18 20
-31 23 -26 24 -41 9 -90 -10 -34 -30 -107 -68 -255 -10 -38 -37 -140 -61 -225
-55 -203 -54 -200 -43 -200 9 0 27 62 59 200 9 36 18 72 21 80 9 24 82 298
102 380 l18 76 -51 79 c-69 109 -86 132 -86 117z"/>
<path d="M540 2393 c-18 -43 -41 -97 -52 -120 -10 -23 -18 -45 -18 -48 0 -4
-6 -21 -14 -38 -8 -18 -27 -61 -41 -97 -26 -63 -39 -92 -84 -192 -11 -26 -21
-51 -21 -55 0 -4 -6 -19 -13 -34 -24 -44 -47 -123 -40 -129 5 -3 46 -21 93
-40 47 -18 100 -40 118 -48 18 -8 34 -13 36 -11 1 2 7 24 13 49 6 25 29 115
52 200 24 85 51 187 61 225 10 39 29 111 42 161 l23 91 -35 54 c-39 60 -76
109 -82 109 -2 0 -19 -35 -38 -77z m107 -81 c7 -30 -2 -71 -106 -457 -53 -197
-59 -215 -81 -215 -31 0 -155 58 -158 73 -3 17 10 52 99 257 32 74 81 192 109
263 27 70 56 137 63 148 12 20 13 19 40 -13 15 -18 30 -44 34 -56z"/>
<path d="M1460 2380 c-144 -15 -556 -51 -632 -57 -43 -3 -78 -10 -78 -15 0 -9
30 -7 250 12 58 5 213 19 344 30 132 11 244 24 250 30 11 11 -16 11 -134 0z"/>
<path d="M1763 2352 c4 -19 13 -48 21 -65 8 -18 38 -93 67 -167 28 -74 56
-139 60 -144 18 -20 17 0 -1 39 -11 22 -19 44 -20 48 0 5 -6 23 -14 40 -8 18
-35 86 -61 152 -49 126 -62 151 -52 97z"/>
<path d="M1694 2363 l-31 -4 24 -77 c14 -42 32 -106 42 -142 17 -64 19 -66 80
-103 65 -40 80 -42 62 -10 -6 10 -25 56 -42 103 -17 47 -35 94 -40 105 -5 11
-13 34 -19 50 -19 51 -35 85 -40 83 -3 0 -19 -3 -36 -5z m106 -266 c0 -27 -28
22 -34 58 l-7 40 21 -44 c11 -24 20 -48 20 -54z"/>
<path d="M1460 2345 c-74 -7 -220 -20 -325 -28 -104 -9 -236 -22 -292 -28
-114 -13 -101 -1 -133 -124 -10 -38 -27 -104 -39 -145 -49 -184 -64 -239 -77
-295 -8 -33 -19 -71 -24 -85 -26 -74 -24 -79 27 -101 26 -11 57 -24 68 -29 40
-18 240 -99 251 -102 11 -3 71 42 119 87 12 11 41 36 66 55 24 19 49 40 54 45
6 6 51 45 100 86 50 40 92 77 95 80 3 3 34 30 70 60 35 29 72 60 80 69 37 34
134 116 158 132 48 31 47 33 -8 213 -12 39 -25 81 -29 94 -4 14 -11 25 -17 26
-5 1 -70 -4 -144 -10z m110 -35 c20 0 32 -27 71 -159 l21 -73 -23 -23 c-13
-13 -139 -120 -279 -240 -140 -119 -290 -246 -333 -283 -42 -37 -87 -71 -100
-75 -17 -7 -58 6 -175 55 l-154 63 6 40 c6 45 25 127 54 230 10 39 27 99 36
135 9 36 23 85 30 110 8 25 17 61 20 81 9 54 25 68 91 81 62 11 76 12 280 22
66 4 145 11 175 17 30 7 86 13 123 14 37 1 71 6 75 10 4 3 20 4 36 1 16 -3 37
-6 46 -6z"/>
<path d="M1694 2038 c-16 -13 -43 -35 -59 -49 -29 -26 -209 -180 -324 -278
-30 -25 -62 -53 -70 -61 -9 -8 -29 -25 -45 -38 -39 -30 -125 -102 -151 -127
-12 -11 -37 -32 -57 -47 -61 -46 -69 -57 -62 -86 4 -15 10 -31 14 -37 4 -5 13
-28 20 -50 7 -22 16 -44 21 -50 5 -5 9 -15 9 -22 0 -7 9 -32 19 -56 11 -23 23
-53 26 -67 4 -14 13 -38 21 -55 7 -16 36 -91 64 -165 29 -74 58 -149 66 -167
8 -17 14 -35 14 -40 1 -4 9 -26 20 -48 11 -22 19 -45 20 -51 0 -6 10 -33 21
-59 l21 -48 -23 -18 c-13 -10 -41 -26 -61 -36 -39 -19 -49 -33 -23 -33 8 0 15
4 15 8 0 4 20 18 45 30 25 12 45 27 45 32 0 6 3 9 8 7 4 -2 75 1 157 8 294 26
631 56 720 65 163 16 155 18 195 -50 19 -33 38 -60 43 -60 12 0 8 9 -32 71
l-39 60 13 52 c8 29 24 88 35 132 12 44 30 113 41 153 10 39 28 105 38 145
103 380 140 527 135 527 -2 0 9 12 24 28 27 26 87 98 142 172 14 18 35 44 47
59 13 14 23 31 23 36 -1 11 -28 -19 -70 -74 -14 -19 -32 -42 -40 -51 -8 -10
-22 -27 -30 -37 -8 -10 -34 -42 -58 -70 l-43 -52 -45 27 c-24 15 -104 63 -177
107 -72 44 -158 97 -189 117 -31 21 -62 38 -68 38 -5 0 -10 4 -10 8 0 5 -15
16 -32 25 -18 9 -76 44 -128 77 -52 33 -114 70 -137 82 -24 12 -43 26 -43 30
0 16 -37 8 -66 -14z m112 -33 c30 -19 59 -35 64 -35 6 0 10 -4 10 -8 0 -5 15
-16 33 -25 17 -9 75 -44 127 -77 52 -33 111 -69 130 -80 19 -11 49 -29 65 -40
17 -11 46 -29 65 -40 19 -11 89 -54 155 -95 117 -72 120 -74 117 -107 -1 -18
-6 -42 -11 -53 -5 -11 -16 -49 -24 -85 -9 -36 -34 -135 -57 -220 -23 -85 -51
-186 -60 -225 -53 -203 -101 -380 -105 -384 -3 -2 -101 -12 -218 -22 -178 -15
-532 -46 -747 -66 l-55 -5 -29 79 c-16 43 -37 96 -47 118 -10 23 -21 54 -25
70 -4 16 -13 40 -20 54 -8 14 -14 30 -14 34 0 5 -6 23 -14 40 -8 18 -38 93
-66 167 -28 74 -58 149 -66 167 -8 17 -14 34 -14 38 0 3 -9 25 -19 48 -11 24
-23 56 -27 72 -4 17 -11 36 -17 43 -5 6 -6 12 -1 12 5 0 28 17 50 38 42 37 99
86 164 139 19 15 40 33 45 39 6 5 51 44 100 85 50 40 92 76 95 79 3 3 34 30
70 60 35 30 71 62 80 70 78 73 179 150 197 150 8 0 39 -16 69 -35z"/>
<path d="M1692 2003 c-16 -16 -65 -57 -108 -93 -43 -36 -86 -72 -94 -80 -19
-18 -78 -69 -146 -125 -26 -22 -55 -47 -64 -55 -8 -8 -28 -25 -44 -38 -41 -32
-123 -101 -165 -140 -20 -18 -51 -43 -69 -55 -18 -12 -35 -31 -38 -42 -4 -18
105 -321 136 -376 4 -9 13 -34 19 -56 9 -34 20 -45 72 -76 34 -21 66 -37 70
-37 5 0 9 -4 9 -8 0 -5 11 -14 24 -20 20 -9 28 -6 53 16 73 66 156 136 190
164 21 16 40 33 43 36 3 4 46 41 95 82 50 41 95 80 100 86 6 6 30 26 54 45 25
18 54 43 66 54 12 11 46 40 75 65 30 25 70 59 89 76 l34 30 -22 48 c-11 27
-21 54 -21 60 0 6 -6 23 -14 38 -8 14 -19 43 -26 65 -7 21 -16 43 -20 48 -4 6
-22 52 -40 104 -32 89 -59 131 -86 131 -7 0 -14 4 -16 8 -3 8 -111 72 -121 72
-4 0 -19 -12 -35 -27z m165 -89 c17 -13 35 -34 39 -46 3 -13 36 -97 71 -187
91 -232 92 -212 -9 -296 -45 -38 -90 -76 -98 -85 -8 -9 -35 -32 -60 -51 -42
-32 -162 -134 -374 -317 -111 -97 -109 -96 -145 -77 -56 28 -123 77 -128 94
-3 9 -39 100 -79 204 -41 103 -74 193 -74 201 0 13 54 61 295 265 61 51 139
118 175 149 35 32 109 94 163 140 l99 82 47 -26 c25 -15 60 -37 78 -50z"/>
<path d="M1937 1892 c3 -9 9 -21 13 -27 4 -5 11 -21 15 -35 8 -28 51 -143 65
-175 5 -11 24 -58 41 -105 18 -47 36 -90 41 -96 4 -6 47 -28 95 -49 49 -21
107 -47 130 -57 23 -10 46 -18 50 -18 4 -1 26 -9 48 -20 48 -23 80 -27 50 -6
-11 7 -31 17 -45 21 -14 4 -38 13 -55 20 -295 129 -256 96 -320 265 -21 52
-52 134 -71 182 -19 48 -34 92 -34 97 0 5 -7 11 -14 14 -11 4 -13 1 -9 -11z"/>
<path d="M2001 1818 c11 -29 24 -62 29 -73 5 -11 23 -58 41 -105 17 -47 35
-94 40 -105 5 -11 13 -32 19 -47 5 -16 15 -28 22 -28 6 0 30 -9 52 -19 66 -31
285 -121 295 -121 17 0 70 202 54 207 -4 2 -39 23 -78 48 -38 25 -78 48 -87
51 -10 3 -18 10 -18 15 0 5 -4 9 -9 9 -4 0 -89 50 -186 110 -98 61 -182 110
-186 110 -4 0 2 -24 12 -52z m92 -49 c24 -13 281 -171 365 -225 45 -30 52 -38
52 -67 0 -48 -19 -107 -34 -107 -15 0 -182 67 -262 105 -54 26 -56 29 -109
170 -14 39 -30 80 -35 93 -18 43 -13 50 23 31z"/>
<path d="M2064 1413 c-16 -16 -65 -57 -109 -93 -43 -36 -88 -74 -99 -85 -12
-12 -41 -36 -66 -55 -24 -19 -52 -42 -61 -50 -8 -8 -40 -36 -70 -61 -30 -26
-110 -95 -179 -154 -170 -145 -162 -141 -202 -118 -18 10 -34 21 -36 26 -2 4
-9 7 -15 7 -7 0 -23 9 -37 20 -28 22 -40 25 -40 11 0 -5 9 -13 20 -16 11 -3
26 -12 32 -18 7 -7 31 -22 53 -34 49 -26 55 -38 100 -183 47 -149 45 -144 51
-137 6 5 -11 78 -25 112 -8 17 -17 47 -55 173 -5 15 -3 22 6 22 7 0 29 15 49
33 19 17 57 50 83 72 26 22 58 49 70 60 28 24 114 98 181 155 28 23 64 53 80
68 17 15 50 42 74 61 25 19 52 42 61 50 9 9 41 37 71 62 104 89 114 98 104 99
-6 0 -24 -12 -41 -27z"/>
<path d="M2093 1403 c-10 -10 -54 -47 -97 -83 -44 -36 -88 -74 -100 -85 -11
-11 -33 -30 -49 -42 -30 -23 -120 -98 -147 -123 -9 -8 -56 -49 -105 -90 -50
-41 -103 -88 -120 -103 -16 -15 -51 -44 -77 -64 -30 -23 -48 -45 -48 -58 0
-23 17 -90 30 -120 4 -11 18 -53 30 -92 26 -84 12 -79 175 -63 100 11 527 49
620 56 93 8 102 11 108 41 6 30 20 82 87 333 24 85 50 187 60 225 10 39 23 84
28 101 l10 31 -82 33 c-100 40 -126 51 -196 83 -84 38 -105 42 -127 20z m91
-42 c23 -11 86 -39 141 -62 55 -23 105 -47 112 -53 14 -13 4 -55 -93 -416 -9
-30 -22 -82 -30 -115 -8 -33 -22 -77 -31 -97 -14 -33 -20 -38 -50 -38 -19 0
-66 -6 -106 -14 -40 -8 -85 -15 -102 -14 -80 0 -277 -14 -330 -24 -33 -6 -83
-12 -112 -13 -28 -1 -63 -5 -77 -9 -31 -8 -62 19 -71 61 -4 16 -15 52 -26 81
-24 68 -24 103 0 128 10 10 69 62 132 114 62 52 152 129 199 170 214 184 380
320 392 320 6 0 29 -9 52 -19z"/>
<path d="M1162 823 c21 -44 34 -77 78 -193 28 -74 54 -142 59 -150 4 -8 25
-16 45 -18 43 -4 43 -14 1 118 -13 41 -28 93 -34 116 -10 38 -40 84 -55 84 -3
0 -24 11 -46 25 -41 26 -54 31 -48 18z m108 -119 c6 -14 10 -35 10 -47 0 -16
-6 -9 -20 22 -23 50 -23 51 -10 51 6 0 15 -12 20 -26z"/>
<path d="M2896 1869 c-8 -38 -26 -200 -42 -379 -30 -345 -29 -338 -94 -485 -5
-11 -32 -76 -60 -145 -28 -69 -57 -138 -65 -155 -7 -16 -22 -51 -34 -77 -12
-26 -21 -50 -21 -53 0 -4 -7 -21 -14 -38 -34 -74 -86 -207 -85 -219 0 -16 43
70 60 119 6 19 17 47 25 61 8 15 14 31 14 35 0 4 9 29 21 55 33 74 45 102 79
182 17 41 38 89 46 107 8 17 14 34 14 38 0 4 6 21 14 38 84 186 87 197 106
407 10 107 26 269 35 359 8 90 13 166 11 169 -3 2 -7 -6 -10 -19z"/>
<path d="M2839 1809 c-43 -57 -143 -184 -164 -207 -11 -13 -28 -33 -38 -44 -9
-12 -22 -40 -28 -62 -46 -168 -55 -206 -47 -206 5 0 30 -9 56 -21 88 -39 107
-48 146 -64 22 -8 41 -14 43 -11 2 2 10 73 18 157 8 85 21 228 30 318 8 90 14
166 12 168 -2 2 -15 -11 -28 -28z m-17 -170 c-2 -35 -7 -80 -12 -99 -5 -19
-12 -82 -15 -140 -3 -58 -8 -115 -11 -127 -6 -32 -35 -29 -114 11 -63 31 -65
33 -62 68 6 86 46 172 122 266 41 50 80 90 85 88 6 -1 9 -30 7 -67z"/>
<path d="M221 1498 c-39 -428 -46 -516 -39 -512 4 3 8 1 8 -5 0 -5 -5 -13 -11
-17 -6 -3 -8 -17 -5 -29 3 -13 2 -25 -3 -27 -9 -3 5 -21 92 -118 18 -19 57
-64 87 -100 30 -36 57 -67 60 -70 3 -3 30 -34 60 -69 30 -36 62 -72 70 -81 8
-9 40 -45 70 -80 30 -35 70 -79 88 -99 18 -20 42 -50 55 -68 35 -51 59 -60 99
-35 18 11 62 38 98 60 59 36 302 183 308 187 4 3 -85 245 -122 330 -8 17 -19
47 -26 68 -9 29 -24 46 -59 68 -25 16 -53 33 -61 39 -68 45 -374 230 -381 230
-5 0 -9 4 -9 9 0 5 -13 14 -29 21 -16 6 -44 23 -62 36 -32 23 -69 32 -69 17 0
-7 -26 -41 -68 -88 -10 -11 -40 -49 -67 -85 -27 -36 -54 -70 -60 -76 -5 -6
-21 -25 -34 -43 -13 -17 -26 -29 -29 -26 -3 3 15 31 40 62 62 81 69 97 14 38
-55 -61 -61 -52 -8 13 212 260 198 236 241 410 17 68 17 73 2 82 -29 15 -218
90 -228 90 -6 0 -15 -60 -22 -132z m139 50 c83 -35 83 -35 76 -81 -11 -69 -44
-158 -73 -196 -65 -87 -127 -151 -136 -142 -6 6 -5 52 2 128 7 65 17 159 22
208 5 50 11 96 14 104 6 15 16 13 95 -21z m163 -362 c50 -28 398 -243 477
-294 30 -20 59 -43 65 -51 20 -33 145 -357 145 -377 0 -13 -44 -45 -166 -118
-27 -16 -88 -54 -136 -83 -49 -29 -94 -50 -102 -47 -8 3 -22 16 -30 30 -9 13
-69 84 -134 157 -64 74 -153 176 -197 227 -44 52 -113 131 -153 178 -39 46
-72 89 -72 97 0 7 19 37 43 67 23 29 56 71 72 93 52 71 120 145 133 145 7 0
32 -11 55 -24z"/>
<path d="M492 1478 c-6 -24 -19 -73 -28 -109 -13 -56 -27 -80 -101 -173 -46
-59 -82 -111 -78 -114 4 -4 10 -1 12 6 3 7 15 24 27 37 76 84 142 182 154 229
7 28 17 69 23 91 5 22 12 48 15 58 3 9 2 17 -3 17 -5 0 -14 -19 -21 -42z"/>
<path d="M534 1498 c-4 -6 -15 -43 -25 -82 -10 -39 -20 -80 -24 -91 -5 -17 4
-26 52 -55 32 -19 60 -38 61 -42 2 -5 8 -8 13 -8 6 0 35 -16 65 -35 30 -19 57
-35 60 -35 2 0 10 -5 17 -10 7 -6 48 -33 92 -60 44 -27 105 -65 136 -84 69
-44 99 -56 83 -35 -6 8 -17 32 -24 54 -7 22 -16 44 -21 50 -5 5 -9 15 -9 22 0
7 -8 32 -19 56 -10 23 -33 81 -51 129 l-33 86 -66 28 c-36 15 -85 35 -108 46
-23 10 -45 18 -48 18 -3 0 -26 9 -51 20 -78 36 -93 40 -100 28z m142 -82 c184
-74 204 -85 215 -114 5 -15 14 -36 19 -47 18 -38 70 -186 70 -201 0 -17 -19
-7 -243 133 -82 51 -151 93 -155 93 -4 1 -18 9 -30 20 -22 18 -23 25 -17 72 6
46 20 88 28 88 2 0 52 -20 113 -44z"/>
<path d="M475 1277 c3 -7 20 -21 38 -30 41 -21 109 -60 122 -70 10 -9 78 -50
180 -112 33 -20 80 -49 105 -65 89 -57 151 -92 156 -87 3 3 -44 35 -103 71
-59 36 -115 70 -123 76 -51 34 -112 70 -120 70 -4 0 -10 3 -12 8 -3 6 -67 46
-215 134 -24 14 -32 16 -28 5z"/>
<path d="M2550 1272 c0 -7 110 -62 125 -62 2 0 29 -11 59 -25 30 -14 61 -25
68 -25 17 0 -19 23 -62 40 -43 16 -116 47 -154 66 -34 16 -36 17 -36 6z"/>
<path d="M2535 1217 c-3 -18 -10 -41 -15 -52 -4 -11 -31 -112 -60 -225 -29
-113 -56 -214 -60 -225 -4 -11 -18 -59 -30 -106 l-21 -86 23 -39 c12 -21 25
-41 28 -44 3 -3 19 -26 36 -51 l30 -47 11 27 c7 14 35 82 63 151 28 69 57 139
65 155 7 17 22 51 34 77 12 26 21 50 21 53 0 4 6 21 14 38 8 18 27 61 41 97
15 36 33 79 40 95 8 17 21 47 29 68 l15 38 -37 15 c-20 9 -55 23 -77 33 -22
10 -51 22 -65 26 -14 4 -29 11 -35 15 -31 22 -44 18 -50 -13z m130 -58 c84
-36 91 -49 56 -117 -10 -20 -39 -89 -64 -152 -87 -218 -192 -454 -202 -455 -5
0 -22 19 -39 42 l-29 43 21 87 c11 49 27 113 35 143 9 30 25 91 37 135 12 44
32 121 44 171 25 96 41 134 57 134 5 0 43 -14 84 -31z"/>
<path d="M2288 495 c-3 -3 -113 -14 -244 -25 -131 -11 -311 -27 -399 -35 -88
-8 -168 -14 -179 -15 -13 0 -17 -5 -13 -17 4 -10 16 -52 27 -93 12 -41 25 -84
30 -95 5 -11 16 -46 25 -78 13 -46 19 -57 33 -53 9 3 44 12 77 20 33 8 130 33
215 56 85 22 189 50 230 60 41 10 111 28 155 40 44 12 101 27 127 33 25 7 49
15 53 19 7 7 -112 188 -124 188 -4 0 -10 -2 -13 -5z m49 -99 c18 -26 33 -51
33 -56 0 -4 -28 -15 -62 -24 -35 -10 -99 -29 -143 -42 -44 -13 -89 -24 -101
-24 -11 0 -47 -9 -80 -19 -32 -10 -97 -29 -144 -41 -47 -11 -107 -27 -135 -35
-27 -8 -68 -17 -91 -21 l-41 -6 -22 68 c-34 102 -51 178 -41 188 5 4 56 10
115 12 59 2 137 9 174 15 70 13 85 14 286 24 71 3 132 8 134 11 3 3 23 4 45 2
34 -3 43 -9 73 -52z"/>
<path d="M1340 408 c-34 -5 -79 -22 -118 -46 -189 -112 -342 -206 -339 -208 5
-6 609 -74 614 -70 3 3 -27 108 -37 131 -5 11 -14 40 -20 65 -6 25 -15 54 -20
65 -5 11 -12 31 -17 45 -8 25 -10 25 -63 18z m40 -58 c13 -24 60 -185 60 -205
0 -25 -109 -20 -342 18 -42 6 -79 15 -82 18 -9 8 18 29 109 84 178 108 233
126 255 85z"/>
<path d="M1410 415 c0 -3 4 -13 9 -23 10 -17 64 -193 77 -246 4 -16 13 -41 20
-55 19 -35 18 -5 0 51 -8 24 -30 96 -50 161 -20 64 -41 117 -46 117 -6 0 -10
-2 -10 -5z"/>
<path d="M2410 384 c0 -10 23 -48 37 -62 17 -18 14 -21 -29 -32 -18 -5 -69
-19 -113 -30 -44 -12 -111 -30 -150 -40 -38 -10 -106 -28 -150 -40 -44 -12
-109 -28 -145 -36 -36 -9 -74 -19 -85 -24 -11 -4 -68 -20 -127 -35 -101 -26
-113 -27 -200 -17 -275 31 -461 53 -523 61 -41 6 -76 6 -85 1 -8 -5 -13 -10
-10 -10 5 0 208 -23 538 -59 180 -20 173 -21 397 39 44 12 112 30 150 40 39
10 142 37 230 60 88 23 192 50 230 60 113 29 108 24 74 81 -29 46 -39 57 -39
43z"/>
<path d="M1090 316 c-30 -19 -91 -56 -135 -82 -44 -26 -74 -49 -67 -52 7 -2
21 3 30 11 9 8 31 22 47 31 17 9 42 24 57 34 14 9 51 32 82 50 53 30 66 42 49
42 -5 0 -33 -15 -63 -34z"/>
</g>
</svg>
